<?xml version="1.0" encoding="UTF-8"?>
<!-- Generator: Adobe Illustrator 27.1.0, SVG Export Plug-In . SVG Version: 6.00 Build 0)  -->
<svg xmlns="http://www.w3.org/2000/svg" xmlns:xlink="http://www.w3.org/1999/xlink" version="1.1" id="Layer_1" x="0px" y="0px" viewBox="0 0 512 100" style="enable-background:new 0 0 512 100;" xml:space="preserve">
<style type="text/css">
    .st0{display:none;fill:#FFFFFF;}
    .st1{fill:#FFFFFF;}
    .st2{fill:#F58021;}
</style>
<rect class="st0" width="512" height="100"></rect>
<g>
    <g>
        <path class="st1" d="M144,21.4c0.7,0.7,1,1.6,1,2.6s-0.3,1.9-1,2.6c-0.7,0.7-1.6,1-2.6,1h-16.3v47.9c0,1.1-0.4,2-1.1,2.8    c-0.8,0.8-1.7,1.1-2.8,1.1c-1.1,0-2-0.4-2.8-1.1c-0.8-0.8-1.1-1.7-1.1-2.8V27.6h-16.3c-1.1,0-1.9-0.3-2.6-1c-0.7-0.7-1-1.6-1-2.6    s0.3-1.9,1-2.6c0.7-0.7,1.6-1,2.6-1h40.5C142.4,20.4,143.3,20.7,144,21.4z"></path>
        <path class="st1" d="M168.9,38.8c1.5,0.8,2.3,1.8,2.3,3c0,0.4,0,0.6-0.1,0.8c-0.5,1.6-1.5,2.4-3,2.4c-0.3,0-0.6,0-1.1-0.2    c-2-0.4-3.7-0.5-4.9-0.5c-3.6,0-6.6,0.8-8.8,2.5c-2.2,1.7-3.3,3.9-3.3,6.7v22.1c0,1.2-0.3,2.1-0.9,2.8c-0.6,0.7-1.6,1-2.8,1    c-1.2,0-2.1-0.3-2.8-0.9c-0.7-0.6-1-1.6-1-2.8V41.9c0-1.2,0.3-2.1,1-2.8c0.7-0.7,1.6-1,2.8-1c2.5,0,3.8,1.3,3.8,3.8v1.4    c1.5-1.8,3.4-3.2,5.6-4.2c2.2-1,4.6-1.5,7.1-1.5C165.3,37.6,167.4,38,168.9,38.8z"></path>
        <path class="st1" d="M205.4,40.5c3.2,1.8,5.6,4.4,7.5,7.6c1.8,3.2,2.8,6.8,2.8,10.7v16.9c0,1.1-0.4,2-1.1,2.8    c-0.7,0.7-1.7,1.1-2.8,1.1c-1.1,0-2-0.4-2.8-1.1c-0.7-0.7-1.1-1.7-1.1-2.8v-2.8c-1.8,2.2-3.9,3.9-6.4,5.1    c-2.5,1.2-5.2,1.8-8.2,1.8c-3.6,0-6.9-0.9-9.9-2.7c-2.9-1.8-5.3-4.3-7-7.5c-1.7-3.2-2.5-6.8-2.5-10.7s0.9-7.5,2.7-10.7    c1.8-3.2,4.3-5.7,7.5-7.6c3.2-1.8,6.7-2.8,10.6-2.8C198.7,37.8,202.3,38.7,205.4,40.5z M201.7,71.1c2-1.2,3.6-2.9,4.8-5.1    c1.2-2.1,1.7-4.6,1.7-7.2c0-2.7-0.6-5.1-1.7-7.3c-1.2-2.2-2.8-3.9-4.8-5.1c-2-1.2-4.3-1.9-6.8-1.9c-2.5,0-4.8,0.6-6.8,1.9    c-2,1.2-3.7,2.9-4.8,5.1c-1.2,2.2-1.8,4.6-1.8,7.3c0,2.7,0.6,5.1,1.8,7.2c1.2,2.1,2.8,3.8,4.8,5.1c2,1.2,4.3,1.9,6.8,1.9    C197.4,73,199.7,72.3,201.7,71.1z"></path>
        <path class="st1" d="M257.1,40c2.8,1.5,4.9,3.7,6.5,6.6c1.6,2.9,2.3,6.4,2.3,10.5v18.6c0,1.1-0.4,2-1.1,2.8    c-0.7,0.7-1.7,1.1-2.8,1.1c-1.1,0-2-0.4-2.8-1.1c-0.7-0.7-1.1-1.7-1.1-2.8V57.1c0-4.1-1.1-7.2-3.3-9.3c-2.2-2.1-5.1-3.1-8.7-3.1    c-2.1,0-4,0.4-5.8,1.3c-1.7,0.9-3.1,2-4.1,3.5c-1,1.5-1.5,3.1-1.5,4.9v21.3c0,1.1-0.4,2-1.1,2.8c-0.7,0.7-1.6,1.1-2.8,1.1    c-1.1,0-2-0.4-2.8-1.1c-0.7-0.7-1.1-1.7-1.1-2.8V41.9c0-1.2,0.4-2.1,1.1-2.8c0.7-0.7,1.7-1.1,2.8-1.1c1.2,0,2.1,0.4,2.8,1.1    c0.7,0.7,1.1,1.6,1.1,2.8v0.8c1.6-1.6,3.5-2.9,5.8-3.7c2.2-0.9,4.6-1.3,7.1-1.3C251.2,37.7,254.3,38.5,257.1,40z"></path>
        <path class="st1" d="M309.8,75.9c0,2.4-1.2,3.6-3.6,3.6h-25.8c-2.4,0-3.6-1.2-3.6-3.6c0-1,0.2-1.8,0.7-2.4L299,45.2h-19.3    c-2.4,0-3.6-1.2-3.6-3.6c0-2.4,1.2-3.6,3.6-3.6h25.8c2.4,0,3.6,1.2,3.6,3.6c0,1-0.2,1.8-0.7,2.4L287,72.4h19.2    C308.6,72.4,309.8,73.5,309.8,75.9z"></path>
        <path class="st1" d="M347.4,40.5c3.2,1.8,5.6,4.4,7.5,7.6c1.8,3.2,2.8,6.8,2.8,10.7v16.9c0,1.1-0.4,2-1.1,2.8    c-0.7,0.7-1.7,1.1-2.8,1.1c-1.1,0-2-0.4-2.8-1.1c-0.7-0.7-1.1-1.7-1.1-2.8v-2.8c-1.8,2.2-3.9,3.9-6.4,5.1    c-2.5,1.2-5.2,1.8-8.2,1.8c-3.6,0-6.9-0.9-9.9-2.7c-3-1.8-5.3-4.3-7-7.5c-1.7-3.2-2.5-6.8-2.5-10.7s0.9-7.5,2.7-10.7    c1.8-3.2,4.3-5.7,7.5-7.6c3.2-1.8,6.7-2.8,10.6-2.8C340.8,37.8,344.3,38.7,347.4,40.5z M343.7,71.1c2-1.2,3.6-2.9,4.8-5.1    c1.2-2.1,1.7-4.6,1.7-7.2c0-2.7-0.6-5.1-1.7-7.3c-1.2-2.2-2.8-3.9-4.8-5.1c-2-1.2-4.3-1.9-6.8-1.9c-2.5,0-4.8,0.6-6.8,1.9    c-2,1.2-3.7,2.9-4.8,5.1c-1.2,2.2-1.8,4.6-1.8,7.3c0,2.7,0.6,5.1,1.8,7.2c1.2,2.1,2.8,3.8,4.8,5.1c2,1.2,4.3,1.9,6.8,1.9    C339.4,73,341.7,72.3,343.7,71.1z"></path>
        <path class="st1" d="M406.1,39.1c0.7,0.7,1.1,1.6,1.1,2.8v33.7c0,1.1-0.4,2-1.1,2.8c-0.7,0.7-1.6,1.1-2.8,1.1    c-1.1,0-2-0.4-2.8-1.1c-0.7-0.7-1.1-1.7-1.1-2.8v-0.8c-1.6,1.6-3.5,2.9-5.8,3.7c-2.2,0.9-4.6,1.3-7.1,1.3c-3.5,0-6.6-0.8-9.4-2.3    c-2.8-1.5-4.9-3.7-6.5-6.6c-1.6-2.9-2.3-6.4-2.3,10.5V41.9c0-1.1,0.4-2,1.1-2.8c0.7-0.7,1.7-1.1,2.8-1.1c1.1,0,2,0.4,2.8,1.1    c0.7,0.7,1.1,1.7,1.1,2.8v18.6c0,4.1,1.1,7.2,3.3,9.3c2.2,2.1,5.1,3.1,8.7,3.1c2.1,0,4-0.4,5.8-1.3c1.7-0.9,3.1-2,4.1-3.5    c1-1.5,1.5-3.1,1.5-4.9V41.9c0-1.2,0.4-2.1,1.1-2.8c0.7-0.7,1.7-1.1,2.8-1.1c1.1,0,2,0.4,2.8,1.1C404.5,38,405.4,38.4,406.1,39.1z"></path>
        <path class="st1" d="M447.3,38.8c1.5,0.8,2.3,1.8,2.3,3c0,0.4,0,0.6-0.1,0.8c-0.5,1.6-1.5,2.4-3,2.4c-0.3,0-0.6,0-1.1-0.2    c-2-0.4-3.7-0.5-4.9-0.5c-3.6,0-6.6,0.8-8.8,2.5c-2.2,1.7-3.3,3.9-3.3,6.7v22.1c0,1.2-0.3,2.1-0.9,2.8c-0.6,0.7-1.6,1-2.8,1    c-1.2,0-2.1-0.3-2.8-0.9c-0.7-0.6-1-1.6-1-2.8V41.9c0-1.2,0.3-2.1,1-2.8c0.7-0.7,1.6-1,2.8-1c2.5,0,3.8,1.3,3.8,3.8v1.4    c1.5-1.8,3.4-3.2,5.6-4.2c2.2-1,4.6-1.5,7.1-1.5C443.7,37.6,445.8,38,447.3,38.8z"></path>
        <path class="st1" d="M483.8,40.5c3.2,1.8,5.6,4.4,7.5,7.6c1.8,3.2,2.8,6.8,2.8,10.7v16.9c0,1.1-0.4,2-1.1,2.8    c-0.7,0.7-1.7,1.1-2.8,1.1c-1.1,0-2-0.4-2.8-1.1c-0.7-0.7-1.1-1.7-1.1-2.8v-2.8c-1.8,2.2-3.9,3.9-6.4,5.1    c-2.5,1.2-5.2,1.8-8.2,1.8c-3.6,0-6.9-0.9-9.9-2.7c-3-1.8-5.3-4.3-7-7.5c-1.7-3.2-2.5-6.8-2.5-10.7s0.9-7.5,2.7-10.7    c1.8-3.2,4.3-5.7,7.5-7.6c3.2-1.8,6.7-2.8,10.6-2.8C477.2,37.8,480.7,38.7,483.8,40.5z M480.1,71.1c2-1.2,3.6-2.9,4.8-5.1    c1.2-2.1,1.7-4.6,1.7-7.2c0-2.7-0.6-5.1-1.7-7.3c-1.2-2.2-2.8-3.9-4.8-5.1c-2-1.2-4.3-1.9-6.8-1.9c-2.5,0-4.8,0.6-6.8,1.9    c-2,1.2-3.7,2.9-4.8,5.1c-1.2,2.2-1.8,4.6-1.8,7.3c0,2.7,0.6,5.1,1.8,7.2c1.2,2.1,2.8,3.8,4.8,5.1c2,1.2,4.3,1.9,6.8,1.9    C475.8,73,478.1,72.3,480.1,71.1z"></path>
    </g>
</g>
<path class="st2" d="M78.4,23.4l-0.1-0.7l-0.6-0.3c-3.7-1.6-13.9-5.3-29.4-5.3c-15.5,0-25.7,3.7-29.4,5.3l-0.6,0.3l-0.1,0.7  c-0.3,1.8-0.7,4.8-0.9,8.5c-0.2,5.4,0.2,13.7,3.3,22.5c3.6,10.4,11.1,17.7,16.8,22c4.4,3.4,8.4,5.4,10.4,6.3l0.6,0.3l0.6-0.3  c2-0.9,6-3,10.5-6.4c5.6-4.3,13.1-11.5,16.7-21.9C80.7,40.7,79.2,28.2,78.4,23.4z M43.5,37.2h-8.2c-1.8,0-3.3-1.5-3.3-3.3  c0-1.8,1.5-3.3,3.3-3.3h16.6c0.5,0.8,1.4,1.3,2.3,1.3c1.5,0,2.7-1.2,2.7-2.7c0-1.5-1.2-2.7-2.7-2.7c-1,0-1.8,0.5-2.3,1.3H35.3  c-3.4,0-6.1,2.7-6.1,6.1c0,3.3,2.7,6.1,6.1,6.1h6.8v36.7c-1.1-0.7-2.2-1.5-3.3-2.3c-5.4-4.1-12.5-11.0-15.9-20.7  c-2.9-8.4-3.3-16.4-3.1-21.6c0.1-3.2,0.4-5.8,0.7-7.5c3.6-1.5,13.3-4.8,27.7-4.8c5.6,0,11.1,0.5,16.3,1.5l0,12.6  c0,1.8-1.5,3.3-3.3,3.3H53c-0.8,0-1.4,0.6-1.4,1.4v25c-0.8,0.5-1.3,1.3-1.3,2.3c0,1.5,1.2,2.7,2.7,2.7c1.5,0,2.7-1.2,2.7-2.7  c0-0.9-0.5-1.8-1.3-2.3V39.9h6.8c3.4,0,6.1-2.7,6.1-6.1l0-12c3.9,0.9,6.8,1.9,8.6,2.7c0.8,4.7,1.9,16.4-2.4,29.1  c-3.4,9.7-10.4,16.6-15.8,20.7c-4,3-7.6,4.9-9.5,5.9c-0.8-0.4-1.9-1-3.3-1.8V38.6C44.9,37.8,44.3,37.2,43.5,37.2z"></path>
</svg>